<svg xmlns="http://www.w3.org/2000/svg" viewBox="0 0 83 100" width="38" height="45">
	<defs>
		<clipPath clipPathUnits="userSpaceOnUse" id="cp1">
			<path d="M0 0L83 0L83 100L0 100Z" />
		</clipPath>
	</defs>
	<style>
		tspan { white-space:pre }
		.shp0 { fill: #ed694f } 
	</style>
	<g id="Page 1" clip-path="url(#cp1)">
		<path id="Path 1" class="shp0" d="M70.84 11.97C54.63 -4.23 28.36 -4.24 12.16 11.97C-4.05 28.17 -4.05 54.45 12.16 70.66L15.08 73.58L15.08 40.31L15.1 40.31C15.23 25.82 27.05 14.06 41.58 14.06C56.2 14.06 68.08 25.95 68.08 40.56C68.08 55.17 56.2 67.06 41.58 67.06L41.58 49.06C46.27 49.06 50.08 45.25 50.08 40.56C50.08 35.87 46.27 32.06 41.58 32.06C36.89 32.06 33.08 35.87 33.08 40.56L33.08 91.58L41.5 100L70.59 70.94L70.84 70.66C87.48 54.11 87.06 28.17 70.84 11.97Z" />
	</g>
</svg>
